<svg width="128" height="128" viewBox="0 0 128 128" fill="none" xmlns="http://www.w3.org/2000/svg">
<path fill-rule="evenodd" clip-rule="evenodd" d="M60.3433 0.346191C40.5893 1.08414 22.7678 4.38106 11.026 16.574C-6.44397 34.7151 9.4702 84.0712 13.3726 90.8101H26.8058V74.9357H69.1126V90.8101H84.7851L87.126 75.162C61.8264 73.307 45.0005 56.1462 43.1235 36.1015C42.0722 24.8752 45.9156 13.3493 55.0471 4.63038C56.66 3.09038 58.4286 1.66008 60.3433 0.346191ZM88.6005 65.3053L98.308 0.414322C96.0907 0.414321 93.8659 0.398402 91.6389 0.374516C37.0584 4.45697 44.0833 62.7625 88.6005 65.3053Z" fill="currentColor"/>
<path d="M96.526 10.7993V64.9819C43.9162 69.8232 33.2417 1.86204 94.8105 6.81184e-05C94.8105 6.81184e-05 123.585 0 124 1.49026e-05L123.975 97.3799C122.032 129.341 85.8516 135.736 62.4057 117.674L69.649 107.62C92.0424 122.706 111.013 115.255 109.679 94.5871V10.7993H96.526Z" fill="currentColor"/>
</svg>
